<svg xmlns="http://www.w3.org/2000/svg" viewBox="0 0 500 500" width="500" height="500">
  <title>Fezan Calendar Illustration</title>
  
  <!-- Background Gradient -->
  <defs>
    <linearGradient id="heroGradient" x1="0%" y1="0%" x2="100%" y2="100%">
      <stop offset="0%" style="stop-color:#FF4500;stop-opacity:0.1"/>
      <stop offset="100%" style="stop-color:#FFD700;stop-opacity:0.1"/>
    </linearGradient>
  </defs>
  
  <!-- Background -->
  <rect width="500" height="500" fill="url(#heroGradient)"/>
  
  <!-- Calendar Symbols -->
  <g transform="translate(250, 250)">
    <circle cx="0" cy="0" r="180" fill="none" stroke="#FF4500" stroke-width="2" stroke-dasharray="10 10"/>
    
    <!-- Day Segments -->
    <g stroke="#FF4500" stroke-width="3">
      <line x1="0" y1="-180" x2="0" y2="-160" transform="rotate(0)"/>
      <line x1="0" y1="-180" x2="0" y2="-160" transform="rotate(45)"/>
      <line x1="0" y1="-180" x2="0" y2="-160" transform="rotate(90)"/>
      <line x1="0" y1="-180" x2="0" y2="-160" transform="rotate(135)"/>
      <line x1="0" y1="-180" x2="0" y2="-160" transform="rotate(180)"/>
      <line x1="0" y1="-180" x2="0" y2="-160" transform="rotate(225)"/>
      <line x1="0" y1="-180" x2="0" y2="-160" transform="rotate(270)"/>
      <line x1="0" y1="-180" x2="0" y2="-160" transform="rotate(315)"/>
    </g>
    
    <!-- Central Symbol -->
    <circle cx="0" cy="0" r="20" fill="#FF4500" fill-opacity="0.5"/>
  </g>
  
  <!-- Decorative Elements -->
  <g fill="#FF4500" fill-opacity="0.3">
    <circle cx="50" cy="50" r="10"/>
    <circle cx="450" cy="450" r="15"/>
    <circle cx="50" cy="450" r="8"/>
    <circle cx="450" cy="50" r="12"/>
  </g>
</svg>
